<svg width="3000" height="3000" viewBox="0 0 3000 3000"><path fill="#77B0DD" fill-rule="evenodd" d="M1497.478 2099.026c1.681.22 3.351.445 5.026.664-1.675-.218-3.345-.444-5.026-.664zm-287.358-425.664c-.362-1.01-.856-2.004-1.026-3.059-.05-.357.697-.846 1.081-1.279a392.144 392.144 0 0 1-.055 4.338z" clip-rule="evenodd"/><path fill="#A8DCEF" fill-rule="evenodd" d="M1399.435 897.503c-13.626-33.07-27.257-66.138-40.768-98.925-10.748 1.936-10.357 10.666-14.943 15.07-5.833-6.151-11.654-12.302-17.481-18.458-2.916-8.735-5.585-17.561-8.831-26.169-2.702-7.178-7.178-9.979-13.79-3.724-38.861-41.407-79.591-80.897-121.714-118.962 28.009-31.002 62.839-52.345 103.134-60.275 24.841-4.894 51.296 2.356 75.438 11.992 9.013 3.595 15.284 2.974 23.621-1.931 76.427-44.897 159.077-64.838 247.35-55.711 68.424 7.077 132.061 30.366 186.025 73.42 27.662 22.051 40.871 56.313 54.314 88.721 33.277 80.252 57.156 163.292 69.02 249.357 7.111 51.581 10.912 103.609 16.25 155.432 2.18 21.262 4.471 42.505 5.674 64.1-27.592-55.514-44.82-115.116-68.672-173.037-14.158 65.695-32.607 129.362-53.938 197.355-49.664-92.812-80.684-189.065-114.887-283.961-2.664.45-5.307.898-7.959 1.351 2.236 98.057 4.482 196.114 6.717 294.174-12.391-19.96-17.789-42.48-23.021-64.853-5.432-23.248-9.717-46.797-13.758-70.339-4.049-23.539-7.641-47.171-10.572-70.875-2.934-23.714-5.334-47.522-7.002-71.355-1.676-23.723.076-47.717-8.52-71.797-26.174 108.451-56.594 215.586-91.803 322.653-34.244-105.392-68.481-210.786-102.729-316.178-2.252.47-4.504.947-6.75 1.419-1.988 20.299-1.076 40.649.774 61.077 2.055 22.608 3.581 45.254.341 67.903-5.695-4.286-7.37-11.151-10.863-16.855-16.535-27.085-28.601-56.995-50.657-80.619z" clip-rule="evenodd"/><path fill="#FDFEFE" fill-rule="evenodd" d="M1555.041 1784.021c-26.934 20.838-55.75 25.939-87.83 12.286-55.875-23.759-104.546-59.122-154.144-93.228-36.627-25.186-69.475-54.491-96.209-89.597-13.094-17.162-26.549-38.492-27.878-58.73-.978-14.928 1.643-31.947-.038-47.99-7.102-68.067-14.57-136.105-22.051-204.148-.659-5.97-2.202-11.857-3.63-19.349 13.334.964 15.74-7.979 18.206-18.008 6.48-26.216 14.279-52.111 20.452-78.396 2.922-12.426 8.984-15.383 20.853-13.156 11.018 2.065 21.161 4.926 30.871 10.948 21.369 13.236 43.354 25.491 65.086 38.15-.978 4.432-5.003 3.186-7.82 4.196-16.504-1.884-33.013-2.07-49.643-1.667-21.804.524-38.856 6.315-48.879 28.056-4.724 10.224-14.104 18.289-21.661 27.686 5.624 6.184 16.422 12.571 16.927 19.683 1.296 18.102 16.899 26.966 22.122 41.876 2.06 5.876 6.92 7.975 12.313 9.99 42.059 15.712 84.033 11.404 126.075.044 5.756-1.554 9.688-4.825 12.159-10.166-4.18-2.702-7.799-1.211-12 .346-25.84 9.537-52.669 13.131-80.134 12.596-35.654-.701-52.322-13.041-62.049-46.526-1.878-6.461-3.24-13.106-4.301-19.76-4.454-28.028 11.984-44.996 41.685-42.157-3.521 11.802-4.915 23.77-4.316 35.986 1.455 29.685 19.173 56.757 41.547 62.985 16.103 4.487 28.998-1.661 39.866-12.832 7.81-8.016 14.802-16.789 9.222-33.361-5.481 10.114-8.381 17.294-12.824 23.327-15.389 20.906-41.481 21.493-55.146.415-15.833-24.434-20.727-50.757-7.326-78.344 3.878-.722 7.749-1.441 11.627-2.164 4.377.022 8.743.042 13.131.066 7.689.417 15.372.832 23.062 1.255 27.146 2.833 27.146 2.833 30.2 33.465-.829 7.321-3.625 14.743 1 23.476 7.826-7.741 6.558-15.644 4.63-23.676.829-8.938 1.642-17.874 2.433-26.532 9.853-1.206 12.406 9.74 20.387 11.289 8.105-14.48 39.146-15.51 51.201-1.686 4.537 14.329 11.342 27.479 20.441 39.457 2.147 13.398 3.751 26.966 13.297 39.87 3.954-17.898-3.477-31.269-10.869-44.645-1.84-13.274-8.683-24.396-15.278-35.621-24.039-50.422-127.003-113.665-158.044-94.795 53.223 12.104 98.669 35.487 137.492 74.711-9.792 3.614-16.492 2.82-23.236 2.345-16.778-1.181-31.437-10.226-47.836-12.684-3.943-5.075-9.336-7.813-15.355-9.57-37.494-15.051-67.393-44.658-108.709-56.26 18.036-7.744 36.412 6.294 55.344-4.025-22.479-10.259-43.942-4.712-65.312-7.192.687-4.652.747-8.952 1.978-12.893 17.491-55.659 36.384-110.782 60.23-164.165 6.277-14.051 13.763-17.088 26.779-11.069 11.462 5.311 20.672 4.25 31.617-4.432 11.44-9.079 27.191-10.133 42.229-10.364 10.265-.156 11.494 7.733 14.411 14.098 33.495 73.143 66.47 146.56 108.593 215.336 6.168 10.062 11.5 21.276 27.186 30.442-5.504-31.365-12.285-57.905-17.975-85.159 11.313 12.458 15.883 28.338 21.555 43.378 6.271 16.633 9.596 34.465 16.734 50.647 7.645 17.33-2.867 32.562-5.207 48.363 11.215 2.441 8.178-10.608 15.955-9.161 3.613 36.423 12.279 72.085 17.098 108.267 13.674 102.665 14.186 205.527-.918 308.146-5.433 36.938-12.858 73.563-19.376 110.327zm-269.851-373.144c.561.895 1.187 1.76 1.856 2.576-1.538 6.552-.341 10.358 7.15 6.316 4.724-2.576 9.057-5.888 13.412-8.749 4.514 2.867-2.934 9.358 5.799 10.287 4.904-2.988 10.919-6.646 16.899-10.303 2.971 3.658-2.137 8.125 4.783 10.753 14.62-11.555 30.063-23.742 48.566-38.345-113.465-2.373-165.656 17.846-178.974 43.75 17.305-3.957 36.769 1.911 50.872-13.516 4.306 5.92-4.404 10.819 2.861 14.691 9.586-4.169 15.429-15.191 26.776-17.46zm166.561 60.638c-15.448 12.602-18.244 27.754-14.734 44.271 4.553 21.402 29.185 42.124 57.803 45.529-25.01-44.684-9.654-92.936-23.176-137.816 4.492 41.442-11.127 83.742 10.692 127.761-36.455-19.805-47.533-44.156-30.585-79.745zm118.925 115.129c-23.637-3.751-45.551-9.078-68.309-9.54-22.826-.455-45.201 2.021-67.416 7.047-5.058 1.143-12.873-1.006-10.841 7.787 2.01 8.699 8.09 3.729 13.175 2.285 39.773-11.27 79.546-12.094 118.953 1.461 8.024 2.752 12.883 2.438 14.438-9.04zm-35.869 83.083c-18.799-15.355-58.204-15.026-72.889.972 24.247-6.689 48.576-2.872 72.889-.972zm-212.211-384.573c-.033-12.813-3.389-20.609-12.736-20.854-8.936-.239-12.719 9.04-11.917 15.669.834 6.881 1.395 17.967 13.367 17.102 9.392-.68 11.445-7.724 11.286-11.917zm62.527-19.26c-2.56 21.155-1.175 39.584-7.722 56.856-1.055 2.766-.22 6.176 3.57 7.175 2.526.665 4.641-.126 6.359-2.309 6.169-7.796 6.261-49.591-2.207-61.722z" clip-rule="evenodd"/><path fill="#A8DCEF" fill-rule="evenodd" d="M1547.324 1800.706c59.082-29.223 112.334-67.492 165.1-106.512 2.803-2.076 4.961-5.713 10.238-4.268 3.916 11.165-.561 22.424-1.027 33.715-1.846 44.244 2.049 88.345 3.492 132.5.436 13.4 5.58 24.133 17.646 32.102 37.352 24.681 72.988 51.91 111.279 75.268 14.873 9.051 30.617 15.384 46.936 20.908 67.969 22.984 135.586 47.215 206.734 58.874 26.543 4.351 53.898 2.346 80.063 10.04 25.115 7.381 49.494 16.168 70.684 33.605-5.74 5.053-10.793 3.136-15.324 3.142-263.633.104-527.266.099-790.898.033-6.733-.006-13.456-.726-20.194-1.104 26.499-52.344 54.673-103.887 75.092-159.098 15.662-42.365 32.869-84.242 40.179-129.205zm89.981 120.857c-31.348 49.027-65.283 96.473-92.045 148.322 36.027-46.155 70.4-93.32 92.045-148.322z" clip-rule="evenodd"/><path fill="#FDFEFE" fill-rule="evenodd" d="M1547.324 1800.706c-7.311 44.963-24.518 86.84-40.18 129.205-20.419 55.211-48.593 106.754-75.092 159.098-5.471.533-10.946 1.538-16.427 1.543-221.921.072-443.837.061-665.775.033-2.987 0-5.98-.253-10.336-.45 3.103-8.419 10.193-11.132 15.982-14.719 27.729-17.185 58.545-27.081 90.568-28.531 62.9-2.839 121.401-23.494 181.451-38.812 87.927-22.43 161.097-70.973 232.608-123.554 7.931-5.839 10.501-12.796 11.435-21.688 5.415-52.107 3.872-104.364 3.504-156.6-.039-5.514-.006-11.021-.006-16.684 6.815-2.153 9.886 3.729 13.923 6.678 51.07 37.412 102.64 73.961 159.773 101.971 32.75 16.065 65.207 21.188 98.572 2.51zm-111.4 250.804c-54.641-99.153-86.89-207.423-127.174-312.397 31.152 108.747 64.197 216.699 127.174 312.397zM1181.908 646.334c42.123 38.065 82.853 77.555 121.714 118.962-19.189 46.438-38.972 92.625-55.184 140.252-27.296 80.225-51.637 161.336-74.187 243.008-2.032 7.332-1.769 15.891-9.237 22.518-15.971-64.076-31.728-127.239-47.484-190.414-1.933-.096-3.86-.195-5.777-.289-26.147 57.359-40.784 118.605-56.875 179.52 14.949-12.662 14.504-31.994 20.386-48.445 6.206-17.316 10.902-35.168 16.646-52.649 5.877-17.879 12.22-35.607 22.127-53.407 2.467 8.908 5.141 17.764 7.359 26.732 12.385 50.046 24.698 100.114 36.868 150.215 1.137 4.701 1.132 9.666 1.647 14.515l-.664.552c-12.654 2.205-7.925 12.157-7.623 19.022 2.795 64.534 11 128.579 17.563 192.775 2.104 20.683 4.262 41.355 4.679 62.285-10.742-29.429-15.85-60.094-20.825-90.635-9.71-59.418-18.267-119.034-26.999-178.62-2.296-15.641-7.678-29.742-18.003-41.682-7.469-8.628-18.233-14.191-27.778-7.535-14.719 10.246-30.942 20.529-36.5 39.427-5.992 20.364-11.056 41.012-18.409 61.291-3.471-68.071-1.335-135.952-1.829-204.588-19.381 22.6-26.817 51.721-45.007 74.211 5.426-70.762 37.923-133.643 55.59-205.536-37.725 18.799-71.418 35.605-105.117 52.405-.961-1.159-1.899-2.315-2.866-3.471 50.839-54.953 99.636-111.642 146.043-170.39 9.941-12.563 18.503-25.741 25.808-40.037 18.233-35.665 40.41-68.727 68.446-97.541 4.608-4.723 8.238-10.913 15.488-12.451z" clip-rule="evenodd"/><path fill="#A8DCEF" fill-rule="evenodd" d="M2046.861 1570.865c-49.961-35.786-79.947-83.166-118.359-130.089-2.631 28.317 10.029 48.95 9.887 75.845-16.725-19.657-28.098-37.97-38.582-56.925-3.137-5.668 1.543-9.084 3.928-13.145 21.209-36.294 35.828-75.32 48.57-115.22 7.596-23.764 4.465-47.341.973-71.034-3.576-24.233-7.316-48.454-11.463-72.594-1.674-9.775-5.584-19.118-12.488-26.337-7.732-8.087-16.686-15.567-29.107-11.25-12.654 4.402-19.695 13.351-21.029 27.353-6.096 64.072-13.439 127.978-25.527 191.262-8.848 46.29-19.254 92.106-40.568 135.076 5.123-28.325 10.627-56.59 15.277-84.989 6.037-36.874 11.348-73.854 17.049-110.769.686-4.446.01-8.304-2.154-12.34-43.211-80.48-71.439-166.944-100.404-253.061-4.674-13.906-17.695-24.248-14.773-41.712 2.355-14.12.479-28.965 1.5-43.771 33.084 86.689 62.668 174.761 111.91 260.81 24.076-64.625 39.773-125.739 54.953-190.38 23.342 62.235 39.773 124.479 76.943 178.468-12.615-129.282-13.691-259.61-49.27-385.786 10.066 19.815 14.258 41.085 18.844 62.332 10.045 46.438 32.869 88.38 47.516 133.252 19.568 60.061 40.291 119.753 60.506 179.608 1.154 3.416 3.152 6.804-1.18 13.645-17.498-32.004-34.172-62.518-50.857-93.04-2.328.555-4.645 1.096-6.975 1.647l54.88 453.144z" clip-rule="evenodd"/><path fill="#FDFEFE" fill-rule="evenodd" d="M1444.008 1049.305c-9.249-5.437-10.358-15.927-14.318-24.354-18.491-39.375-36.241-79.101-55.04-120.437-24.808 11.857-39.537 32.661-54.3 55.082-10.183-11.563-7.941-29.379-26.675-36.151-58.451 103.381-87.57 217.898-122.637 331.091a83430.43 83430.43 0 0 0-11.764-57.139c-.027.008.637-.544.637-.544 12.28 4.569 12.143-5.267 14.016-12.316 23.424-88.528 49.05-176.395 78.597-263.076 16.229-47.629 33.095-95.044 56.502-142.49 11.082 23.792 16.75 47.1 23.033 71.723 11.918-4.962 11.056-16.454 16.025-24.78 11.55 2.908 15.719 12.511 19.041 20.952 26.065 66.121 51.477 132.509 77.004 198.847.406 1.035-.094 2.411-.165 3.627l.044-.035zm-457.012 119.062c-23.479 34.517-41.52 71.569-67.897 104.15 12.648-38.46 25.274-76.921 38.225-116.348 5.871 5.915 1.137 12.796 9.319 19.617 15.707-31.87 31.041-62.969 46.364-94.062 2.548 71.423-.561 142.542 5.646 213.9 21.721-29.017 19.793-66.189 35.27-97.263-7.469 37.285-14.564 74.463-13.34 112.649.093 2.781-1.735 5.843-3.246 8.444-29.898 51.627-55.92 105.287-82.836 158.48-.967 1.906-1.126 5.039-6.371 4.66 2.769-53.113 9.639-105.795 16.328-158.48 6.589-51.833 15.672-103.332 22.538-155.747zm132.665 93.029l-27.998-69.029c-18.179 10.372-32.93 52.666-26.493 78.783 10.259-22.292 8.551-45.504 22.1-64.976 4.36 10.531 5.618 16.322 2.208 28.188-11.292 39.304-18.976 80.653 6.7 118.962 10.528 15.712 23.012 25.618 44.063 18.008 6.233 13.392 6.738 27.962 9.309 44.977-23.923 2.949-34.836-13.467-45.528-27.974-11.127-15.089-20.106-31.741-30.476-48.418-8.919 27.518 43.024 84.736 78.398 86.741.226 8.06 5.833 15.951 1.796 24.437-3.998 8.436-9.512 16.63-19.349 18.382-12.28 2.197-19.464-6.934-25.087-15.556-44.793-68.854-74.647-141.288-51.834-225.747 4.636-17.179 9.216-34.38 13.4-51.666 2.104-8.721 6.953-14.342 15.592-16.157 9.699-2.038 14.681 4.726 18.964 11.596 17.13 27.455 12.879 59.061 18.97 88.668-1.577.259-3.159.52-4.735.781z" clip-rule="evenodd"/><path fill="#A8DCEF" fill-rule="evenodd" d="M1853.152 1418.871a88829.42 88829.42 0 0 1 9.072-42.454c31.063-6.434 51.928-33.586 54.316-70.246 1.746-27.04-3.186-53.091-13.273-78.179-2.973-7.403 1.895-12.502 5.486-20.427 8.248 9.743 8.83 20.779 12.367 30.681 3.285 9.229.285 20.952 10.033 28.597 6.629-21.271-6.969-62.329-24.049-73.706-7.984 4.086-7.826 13.178-11.439 19.865-3.686 6.827-4.459 15.144-12.313 23.52 1.801-21.595 2.889-40.611 5.184-59.479.994-8.21 5.826-15.595 15.01-16.517 10.139-1.022 17.377 4.294 21.984 13.469 10.727 21.317 11.424 44.98 16.135 67.7 16.197 77.915-12.471 144.714-52.684 208.235-6.389 10.081-13.846 24.099-30.18 18.038-8.1-3.007-14.701-9.938-12.615-20.175 1.939-9.468-.098-22.237 15.719-22.309 2.291-.008 4.662-1.378 6.838-2.446 21.078-10.333 52.459-54.533 55.514-81.213-22.023 25.484-32.271 62.118-71.105 77.046z" clip-rule="evenodd"/><path fill="#FDFEFE" fill-rule="evenodd" d="M1196.703 1659.94c-13.021-40.24-26.032-80.485-40.344-124.708-11.43 19.695-10.095 38.126-17.575 56.723-9.149-38.423-13.34-75.246-18.035-113.317 14.96 1.016 28.251-1.982 38.389-19.376 6.92 32.156 12.643 60.055 19.024 87.801 2.461 10.693 4.125 22.649 10.127 31.238 17.86 25.566 12.456 53.542 8.414 81.639z" clip-rule="evenodd"/><path fill="#A8DCEF" fill-rule="evenodd" d="M1845.781 1469.488c.1 60.649 8.623 121.16-.719 186.053-11.055-27.405-20.777-51.504-30.471-75.614-.443-1.12-1.119-2.466-.873-3.504 8.32-36.027 16.729-72.009 25.121-108.003 2.313.357 4.636.714 6.942 1.068zm-214.875-149.443c12.957 3.045 13.857 24.368 31.289 20.642l-.406-.09c4.668 10.654 13.877 7.749 21.891 6.752 8.045-.989 8.369-7.398 7.602-13.856 3.947-2.979 7.891-5.962 11.834-8.949 7.672 8.754 10.281.115 13.133-4.325 6.271-9.806 7.797-21.443 10.482-33.059 9.502 2.839 9.014 15.455 21.02 17.053 6.602-17.009-4.613-34.481.471-52.443 10.227 4.402 16.021 12.505 16.9 22.957 1.895 22.775-5.91 43.837-16.316 63.235-5.822 10.833-20.535 10.803-31.355 12.291-26.104 3.6-52.553 3.298-78.596-2.46-3.904-.862-6.777-2.631-7.617-6.761-2.209-6.944-1.535-13.963-.332-20.987zm160.237 296.387c-5.141 52.038-6.707 99.823-22.535 146.841-8.611-28.383-17.283-56.749-25.758-85.176-1.104-3.713.418-7.167 3.043-10.139 14.076-15.959 28.091-31.969 45.25-51.526zm-138.977-563.417c7.326 30.274 13.742 60.818 22.387 90.717 4.113 14.227.631 20.137-13.027 23.489-9.314 2.288-18.059 6.852-29.701 11.432 6.025-43.516 11.736-84.774 17.453-126.042.972.138 1.921.267 2.888.404z" clip-rule="evenodd"/><path fill="#FDFEFE" fill-rule="evenodd" d="M1399.435 897.503c22.056 23.624 34.122 53.533 50.658 80.62 3.493 5.704 5.168 12.569 10.863 16.855 7.579 23.879 3.992 48.552 6.151 74.197-6.783-3.392-7.107-9.139-8.897-13.678a32802.316 32802.316 0 0 1-60.247-153.738c-.412-1.068.945-2.817 1.472-4.256z" clip-rule="evenodd"/><path fill="#A8DCEF" fill-rule="evenodd" d="M1872.176 1363.102c8.475-13.96 11.551-28.275 2.797-43.326-3.033-5.212-2.127-10.41-.918-15.977 5.053-23.401 14.213-45.364 23.303-71.25 10.154 41.366 19.047 78.887-4.674 115.198-5.031 7.705-9.133 16.468-20.684 15.174l.176.181zm-224.838-48.28c-15.328-17.574-12.004-38.54-10.082-58.946.736-7.788 7.672-10.36 15.043-10.52 13.416-.292 26.943.486 40.211-1.052 16.279-1.9 22.979 7.098 23.77 20.463.857 14.919 5.24 31.502-9.697 43.225-3.027-7.005-1.373-14.4-1.742-21.625-.621-12.379-3.613-23.863-18.09-25.348-14.352-1.475-29.85-2.71-34.863 16.69 3.598 4.386 8.221 2.447 12.154 3.221.328 5.335.68 10.666 1.021 15.999-6.999 4.888-13.549 10.22-17.725 17.893z" clip-rule="evenodd"/><path fill="#FDFEFE" fill-rule="evenodd" d="M1099.401 1233.068c8.886 25.801 16.739 48.796 24.741 71.734 1.264 3.605 2.208 6.876-.23 10.385-10.325 14.829-11.791 30.198.055 46.91-33.727-10.146-42.278-56.9-24.566-129.029zm120.818 405.783c13 11.439 27.614 24.324 42.262 37.176 3.234 2.828 3.372 5.832 1.784 9.787-6.529 16.272-12.758 32.666-21.078 54.178-8.743-38.516-16.239-71.513-22.968-101.141zm259.048-597.952c9.572 41.619 18.777 81.526 27.877 121.461.23 1.035-.594 2.315-.924 3.477-28.15-24.98-43.298-92.104-26.953-124.938z" clip-rule="evenodd"/><path fill="#A8DCEF" fill-rule="evenodd" d="M1769.656 1149.776c-9.084 4.41-16.316 2.708-25.68 1.662-1.736-26.299-3.488-52.803-5.234-79.318 1.043-.231 2.082-.464 3.125-.698 9.266 26.125 18.526 52.245 27.789 78.354zm-32.539 129.565c-12.051-19.867-20.908-39.984-25.791-61.854 4.598 22.001 37.576 31.381 25.791 61.854z" clip-rule="evenodd"/><path fill="#FDFEFE" fill-rule="evenodd" d="M1381.135 939.871c-13.438 1.403-24.324 2.538-36.588 3.828 5.547-11.887 14.796-18.7 25.659-26.636 3.79 7.9 6.843 14.296 10.929 22.808z" clip-rule="evenodd"/><path fill="#A8DCEF" fill-rule="evenodd" d="M1658.34 1226.875c10.994-6.085 22-12.173 32.914-18.206 7.051 3.809 8.154 8.922 5.635 15.999l-38.885 4.75c.115-.848.226-1.699.336-2.543z" clip-rule="evenodd"/><path fill="#FDFEFE" fill-rule="evenodd" d="M1133.38 1319.696a65955.05 65955.05 0 0 1 6.601 38.814c-18.969-10.247-20.419-18.447-6.601-38.814zm192.863-524.506c5.827 6.156 11.648 12.308 17.481 18.458-.714 5.215-1.423 10.432-8.475 14.164a89921.287 89921.287 0 0 0-9.006-32.622zm-22.556 158.126c-4.097-.267-8.21-.533-12.588-.824-1.186-7.241 2.318-11.407 7.271-15.158 3.751 4.97 7.596 9.592 5.113 16.224l.204-.242z" clip-rule="evenodd"/><path fill="#77B0DD" fill-rule="evenodd" d="M2053.436 1213.245c3.662 1.919 2.553 4.16 2.355 6.489-4.75-1.269-1.834-3.895-2.355-6.489z" clip-rule="evenodd"/><path fill="#FDFEFE" fill-rule="evenodd" d="M1443.964 1049.341c4.465 2.57 5.157 5.775 1.757 9.946-2.219-3.235-2.822-6.464-1.713-9.982l-.044.036zm-413.67-216.435c-1.241.513-2.454 1.03-3.668 1.546-.368-.871-1.264-2.169-.978-2.526.807-1.002 2.098-1.617 3.196-2.392.397.928.792 1.854 1.45 3.372z" clip-rule="evenodd"/><path fill="#77B0DD" fill-rule="evenodd" d="M1811.934 1515.264c-.406.132-1.113.439-1.164.352-.279-.455-.631-1.06-.527-1.526.385-1.758 1.193-1.944 1.951-.483.202.405-.167 1.102-.26 1.657z" clip-rule="evenodd"/><path fill="#FDFEFE" fill-rule="evenodd" d="M2013.887 1176.508c-.637-2.661-1.273-5.33-1.967-8.188 5.059-1.365 5.104 2.276 6.443 4.253a872.593 872.593 0 0 1-4.476 3.935zM928.989 970.226c-2.614 1.475-5.25 1.991-8.963-.22a9357.1 9357.1 0 0 0 6.097-3.249c.966 1.154 1.905 2.31 2.866 3.469z" clip-rule="evenodd"/><path fill="#77B0DD" fill-rule="evenodd" d="M1872 1362.921c-.219.527-.449 1.055-.664 1.587.279-.473.561-.939.84-1.406l-.176-.181z" clip-rule="evenodd"/><path fill="#FDFEFE" fill-rule="evenodd" d="M1303.484 953.558l.933.389-.719-.631z" clip-rule="evenodd"/><path fill="#09AFFB" fill-rule="evenodd" d="M1285.19 1410.877c-11.347 2.268-17.189 13.291-26.773 17.459-7.266-3.872 1.444-8.771-2.861-14.691-14.104 15.427-33.567 9.559-50.872 13.516 13.317-25.903 65.509-46.122 178.974-43.75-18.503 14.604-33.946 26.79-48.566 38.345-6.92-2.628-1.813-7.096-4.783-10.753-5.98 3.658-11.995 7.315-16.899 10.303-8.732-.928-1.285-7.42-5.799-10.287-4.355 2.861-8.688 6.173-13.412 8.749-7.491 4.042-8.688.236-7.156-6.324 1.681-1.274 5.443-2.065 3.619-4.632-1.562-2.183-4.264-.428-5.472 2.065zm166.561 60.638c-16.948 35.589-5.87 59.94 30.585 79.744-21.819-44.019-6.2-86.318-10.692-127.761 13.521 44.88-1.834 93.133 23.176 137.816-28.618-3.405-53.25-24.127-57.803-45.529-3.51-16.516-.714-31.669 14.734-44.27zm118.925 115.129c-1.555 11.479-6.414 11.792-14.438 9.04-39.406-13.555-79.179-12.73-118.953-1.461-5.085 1.444-11.165 6.414-13.175-2.285-2.032-8.793 5.783-6.645 10.841-7.787 22.215-5.025 44.59-7.502 67.416-7.047 22.758.461 44.672 5.789 68.309 9.54zm-35.869 83.083c-24.313-1.899-48.642-5.717-72.889.972 14.685-15.999 54.09-16.328 72.889-.972zm-212.211-384.573c.159 4.193-1.895 11.236-11.286 11.917-11.973.865-12.533-10.221-13.367-17.102-.802-6.629 2.981-15.908 11.917-15.669 9.348.245 12.703 8.041 12.736 20.854z" clip-rule="evenodd"/><path fill="#2570B2" fill-rule="evenodd" d="M1385.123 1265.894c8.469 12.132 8.376 53.926 2.208 61.722-1.719 2.183-3.833 2.974-6.359 2.309-3.79-1-4.625-4.41-3.57-7.175 6.546-17.272 5.161-35.701 7.721-56.856z" clip-rule="evenodd"/><path fill="#09AFFB" fill-rule="evenodd" d="M1452.658 1300.128c2.23-.865 2.867-2.54 2.428-4.772 7.393 13.373 14.823 26.744 10.869 44.642-9.546-12.904-11.15-26.472-13.297-39.87zm184.647 621.435c-21.645 55.002-56.018 102.167-92.045 148.322 26.761-51.849 60.697-99.294 92.045-148.322zm-201.381 129.947c-62.978-95.698-96.022-203.649-127.174-312.397 40.285 104.974 72.534 213.243 127.174 312.397zm225.865-710.914c10.697 1.225 19.775-4.265 29.492-7.104.768 6.458.443 12.868-7.602 13.856-8.013.997-17.222 3.902-21.89-6.752zm2.252-59.665c2.158-7.422 3.244-16.929 14.283-14.219 8.475 2.07 12.094 9.095 11.6 18.061-.566 10.273-7.189 12.95-15.889 13.024-2.982.027-5.986-.563-8.973-.876-.341-5.325-.693-10.655-1.021-15.99z" clip-rule="evenodd"/><path fill="#77B0DD" fill-rule="evenodd" d="M1614.574 1262.505a1.421 1.421 0 0 0-.055-.252v.008c-.061.041-.1.093-.172.126.012.046.027.09.045.137.061 0 .122-.019.182-.019z" clip-rule="evenodd"/><path fill="#A8DCEF" fill-rule="evenodd" d="M1612.268 1316.294c-4.428 16.163 1.258 23.912 18.969 24.736-2.207-6.942-1.533-13.96-.33-20.985-3.91-19.148-4.404-38.634-4.156-58.616-5.234.467-8.723.771-12.176 1.076 4.265 18.138 2.546 36.094-2.307 53.789z" clip-rule="evenodd"/><path fill="#77B0DD" fill-rule="evenodd" d="M1662.195 1340.687c-.012-.022-.018-.046-.033-.061-.121-.016-.254-.016-.373-.03l.406.091z" clip-rule="evenodd"/><path fill="#FDFEFE" fill-rule="evenodd" d="M1285.19 1410.877c1.208-2.494 3.91-4.248 5.47-2.065 1.824 2.567-1.938 3.358-3.619 4.632a24.46 24.46 0 0 1-1.851-2.567z" clip-rule="evenodd"/><g fill="#A8DCEF" fill-rule="evenodd" clip-rule="evenodd"><path d="M1674.035 1297.797c-2.982.027-5.986-.563-8.973-.876-6.998 4.896-13.549 10.229-17.725 17.901-1.598 12.357 10.914 16.613 14.824 25.804 10.527 1.041 19.518-4.33 29.119-7.134 3.947-2.979 7.891-5.962 11.84-8.941a6516.531 6516.531 0 0 0 3.461-16.559c-3.027-7.005-1.373-14.4-1.742-21.625-.621-12.379-3.613-23.863-18.09-25.348-14.352-1.475-29.85-2.71-34.863 16.69 3.598 4.386 8.221 2.447 12.154 3.221 2.158-7.422 3.244-16.929 14.283-14.219 8.475 2.07 12.094 9.095 11.6 18.061-.566 10.273-7.189 12.951-15.888 13.025z"/><path d="M1834.666 1315.77c.973-6.53 1.516-13.228-2.207-19.711-20.217-35.286-34.826-73.124-49.479-110.903-2.652-6.821-5.887-12.505-14.461-10.792-7.732 1.551-20.82-3.839-21.611 7.568-1.037 15.216-8.457 35.998 4.768 45.315 20.568 14.504 24.609 40.333 46.875 52.479-12.566 12.195-18.383 24.755-24.945 37.621-7.848 15.391-16.816 35.149-40.48 40.179-33.578 7.156-66.131 4.284-99.236-.505-19.656-2.842-33.824-10.248-35.709-32.186-.297-3.436-2.592-5.379-6.189-5.448 2.098-14.057-.324-27.515-5.447-40.603 10.133-2.833 12.373 7.14 17.975 11.377 9.051-7.39.494-20.719 9.83-27.773-1.646-6.667-3.68-17.012 1.67-18.662 17.098-5.261 23.852-23.904 41.531-28.418 11.512-2.949 21.77-10.781 32.572-16.416-1.813-10.221-4.404-18.854-9.133-27.098-10.924.593-19.881 6.48-29.729 9.424-15.213 4.537-24.943 12.091-23.33 29.882.479 5.272.248 12.772-12.055 13.247 11.385-71.833 17.689-143.479 34.561-214.002 17.361 67.497 29.949 135.557 57.754 199.354-30.32-95.407-40.689-194.285-50.922-293.208-26.482 97.181-52.18 193.77-82.176 289.103-2.443.096-4.871.189-7.311.283-31.963-97.673-63.916-195.348-95.874-293.023-1.802 27.548-3.592 54.736-1.088 81.521 1.417 15.158-5.777 35.808 16.718 44.073 2.06.752 2.845 5.22 4.031 8.051 12.796 31 24.578 62.483 38.609 92.919 13.977 30.346 23.012 63.18 43.75 90.264 1.932 8.164 3.865 16.325 5.783 24.5-5.498 6.077-9.211-.321-13.434-2.123-5.668-2.419-9.09-2.251-8.041 5.226 3.613 36.423 12.279 72.085 17.098 108.267 13.674 102.665 14.186 205.527-.918 308.146-5.432 36.935-12.857 73.56-19.375 110.323 19.436-5.162 35.352-17.162 51.383-28.189 55.975-38.494 116.502-71.408 159.828-125.938 18.975-23.886 36.955-48.418 43.381-80.073-8.857.823-8.1 12.62-18.057 10.72-2.373-6.897-.369-13.708 1.504-20.728 19.584-73.615 30.42-148.863 41.586-224.043zm-202.732 80.691c-2.373 4.531-3.604 11.242-7.107 14.452 3.504-3.21 4.734-9.921 7.096-14.452.672-2.45-.904-5.52-1.35-8.271.445 2.751 2.031 5.821 1.361 8.271zm74.136 10.764c-.236-12.184 1.279-18.827 6.178-20.903-4.898 2.076-6.414 8.719-6.178 20.903zm70.012 14.889l.082-.096h.012l-.094.096z"/></g><path fill="#09AFFB" fill-rule="evenodd" d="M1698.959 1418.536c11.33 2.269 17.168 13.299 26.762 17.473 7.266-3.886-1.443-8.785 2.861-14.702 14.092 15.421 33.572 9.567 50.873 13.519-13.318-25.906-65.504-46.119-178.975-43.75 18.492 14.601 33.947 26.788 48.566 38.345 6.92-2.625 1.813-7.104 4.768-10.759 5.992 3.655 12.006 7.318 16.914 10.309 8.729-.931 1.275-7.42 5.807-10.289 4.35 2.869 8.672 6.173 13.404 8.738 7.475 4.059 8.678.241 7.168-6.313-1.703-1.274-5.453-2.07-3.631-4.627 1.555-2.189 4.253-.435 5.483 2.056zm-254.978-151.654c-1.362-2.395-2.773-4.772-4.174-7.156-24.039-50.417-127.003-113.66-158.044-94.79 53.223 12.104 98.669 35.487 137.492 74.711-9.792 3.614-16.492 2.82-23.236 2.345-16.778-1.181-31.437-10.226-47.836-12.681-3.943-5.078-9.336-7.815-15.366-9.573-3.79 5.168-9.408 1.947-14.087 3.064-.978 4.432-5.003 3.186-7.82 4.196-16.504-1.884-33.013-2.07-49.643-1.667-21.804.524-38.856 6.315-48.879 28.056-4.724 10.224-14.104 18.289-21.661 27.686 5.624 6.184 16.422 12.571 16.927 19.683 1.296 18.102 16.899 26.966 22.122 41.876 2.06 5.876 6.92 7.975 12.313 9.99 42.059 15.712 84.033 11.404 126.075.044 3.899-1.049 6.964-2.895 9.292-5.624 18.146-10.292 14.279-44.853 14.279-44.853l-2.032-47.641c12.659-6.357 33.228-4.539 42.514 6.121a130.9 130.9 0 0 0 8.903 21.342c8.908 21.358 20.798 35.665 20.798 35.665 8.001-16.911-14.219-46.104-17.937-50.794zm-169.435-21.704c3.878-.722 7.749-1.441 11.627-2.164 4.377.022 8.743.042 13.131.058 7.689.425 15.372.84 23.062 1.263 26.367 2.759 27.125 2.833 29.937 30.9-.785.612-1.252 1.615-1.049 3.004.297 2.087.401 4.086.324 6.019-.236 1.508-.445 3.042-.549 4.591a32.487 32.487 0 0 1-.753 3.051c-2.449 4.743-4.971 9.444-7.437 14.178-3.301 5.102-6.464 10.215-7.694 16.333-.187.934.012 1.81.429 2.559-15.525 19.055-40.443 18.983-53.701-1.45-15.833-24.433-20.727-50.756-7.327-78.342zm108.369 59.003c-3.064 14.661-14.592 38.667-14.592 38.667-25.84 9.537-52.669 13.131-80.134 12.596-35.654-.701-52.322-13.041-62.049-46.526-1.878-6.461-3.24-13.106-4.301-19.76-4.454-28.028 11.984-44.996 41.685-42.157-3.521 11.802-4.915 23.77-4.316 35.986 1.455 29.685 19.173 56.757 41.547 62.985 16.103 4.487 28.998-1.661 39.866-12.832 4.257-4.375 8.276-8.971 10.139-14.947 19.964-35.569 9.869-67.126 9.869-67.126 8.095-.994 11.27 6.217 16.569 9.683 3.598 8.85 9.155 25.329 6.459 37.271-.638 2.805-.83 4.79-.742 6.16z" clip-rule="evenodd"/><path fill="#09AFFB" d="M2196.541 2045.936c-28.57-8.453-58.656-6.723-87.473-12.248-131.637-25.263-256.982-66.014-361.967-154.243-5.311-4.465-10.326-8.348-11.121-15.954-5.926-56.655-3.922-113.372.861-170.96 9.92 31.869 19.826 63.729 29.746 95.582 2.107-.247 4.205-.488 6.305-.73 25.082-62.631 21.17-130.742 30.578-196.339h5.031c13.176 32.414 26.352 64.816 39.531 97.208 2.328-.395 4.658-.807 6.969-1.203 4.455-69.11 2-138.47 1.588-209.651 15.471 4.77 24.385-5.102 34.566-12.184 18.447 29.808 36.336 57.889 59.732 81.62 2.016-.791 4.031-1.576 6.041-2.367-4.74-20.82-9.475-41.648-14.215-62.466 36.918 36.532 65.895 78.744 115.729 107.286-12.588-105.62-24.549-206.121-36.527-306.63 1.488-.313 3.004-.61 4.498-.925 19.332 88.655 38.664 177.298 58.002 265.948 9.521-8.513 5.32-16.059 3.789-23.27-24.637-115.994-49.5-231.944-74.318-347.9-.637-2.661-1.273-5.33-1.967-8.188 5.059-1.365 5.104 2.276 6.443 4.253 22.488 41.693 44.973 83.38 68.441 126.876 7.605-9.103 3.234-14.941 1.559-20.134-29.932-92.985-59.648-186.053-93.227-277.811-13.697-37.461-31.721-73.909-40.553-112.471-22.002-95.951-58.457-184.817-115.168-265.358-7.205-10.234-15.574-18.824-26.104-25.584-136.383-87.564-276.402-92.587-419.458-17.819-14.389 7.516-26.049 10.66-42.459 4.863-45.518-16.075-88.745-10.44-130.04 16.594-55.024 36.036-96.258 83.964-126.156 141.557-12.291 23.676-28.707 42.236-48.95 58.69-60.747 49.384-126.52 91.324-193.253 131.907-4.987 3.034-12.77 4.061-13.176 17.132 65.586-36.248 124.548-77.18 185.207-115.896-46.445 61.425-95.561 119.663-154.677 169.003 1.334 1.596 2.669 3.208 4.015 4.8 47.022-23.973 94.056-47.959 141.084-71.943 1.137 1.016 2.29 2.024 3.427 3.037-42.315 128.848-84.62 257.696-126.937 386.542 2.526 1.077 5.053 2.164 7.568 3.251 21.754-35.531 43.502-71.053 65.256-106.567 1.637.467 3.273.936 4.898 1.406-14.064 98.332-28.745 196.611-30.217 296.687 35.797-62.735 65.739-127.944 103.717-193.214 11.72 39.693 21.595 75.729 43.189 104.664 23.154 31.016 28.224 65.338 32.979 101.16 3.07 23.127 7.496 46.105 12.115 68.991 1.241 6.112.373 13.905 9.325 18.761 8.826-16.366 6.547-36.324 16.361-54.036 16.097 45.194 26.422 89.948 47.291 132.363 8.732-9.502 4.866-18.465 5.695-26.664-.362-1.01-.856-2.004-1.026-3.059-.05-.357.697-.846 1.081-1.279.05-6.135.116-12.275.171-18.41 1.482.192 2.966.373 4.448.566 7.684 36.45 14.169 73.197 25.615 112.74 13.049-17.487 13.235-35.918 26.389-50.506 0 19.415.094 35.99-.017 52.57-.115 15.35-.187 30.711-.735 46.057-2.071 59.197-1.923 59.494-50.691 92.798-32.414 22.116-62.664 48.983-99.625 62.405-90.476 32.887-181.072 65.768-278.841 72.121-39.63 2.57-76.746 16.894-107.133 44.25-3.954 3.553-13.664 6.497-6.387 15.41 1.681.22 3.345.445 5.02.664 229.983.056 459.961.176 689.939.192 280.411.017 560.811-.032 841.211-.208 6.211 0 13.461 2.477 19.717-5.603-22.178-25.673-51.258-38.826-82.709-48.134zm-427.934-282.664c-8.611-28.383-17.283-56.749-25.758-85.176-1.104-3.713.418-7.167 3.043-10.139 14.076-15.959 28.092-31.969 45.25-51.526-5.14 52.039-6.706 99.824-22.535 146.841zm43.327-248.008c-.406.132-1.113.439-1.164.352-.279-.455-.631-1.06-.527-1.526.385-1.758 1.193-1.944 1.951-.483.202.405-.167 1.102-.26 1.657zm33.129 140.277c-11.055-27.405-20.777-51.504-30.471-75.614-.443-1.12-1.119-2.466-.873-3.504 8.32-36.027 16.729-72.009 25.121-108.003 2.313.357 4.635.714 6.941 1.068.1 60.649 8.623 121.159-.718 186.053zm43.919-205.61c-6.389 10.081-13.846 24.099-30.18 18.038-8.1-3.007-14.701-9.938-12.615-20.175 1.939-9.468-.098-22.237 15.719-22.309 2.291-.008 4.662-1.378 6.838-2.446 21.078-10.333 52.459-54.533 55.514-81.213-22.023 25.483-32.271 62.117-71.105 77.045a88829.42 88829.42 0 0 1 9.072-42.454c31.063-6.434 51.928-33.586 54.316-70.246 1.746-27.04-3.186-53.091-13.273-78.179-2.973-7.403 1.895-12.502 5.486-20.427 8.248 9.743 8.83 20.779 12.367 30.681 3.285 9.229.285 20.952 10.033 28.597 6.629-21.271-6.969-62.329-24.049-73.706-7.984 4.086-7.826 13.178-11.439 19.865-3.686 6.827-4.459 15.144-12.313 23.52 1.801-21.595 2.889-40.611 5.184-59.479.994-8.21 5.826-15.595 15.01-16.517 10.139-1.022 17.377 4.294 21.984 13.469 10.727 21.317 11.424 44.98 16.135 67.7 16.197 77.916-12.471 144.715-52.684 208.236zm-14.009-130.155c-3.033-5.212-2.127-10.41-.918-15.977 5.053-23.401 14.213-45.364 23.303-71.25 10.154 41.366 19.047 78.887-4.674 115.198-4.986 7.642-9.068 16.319-20.414 15.196l-.094.159c-.279.467-.561.934-.84 1.406.215-.533.445-1.06.664-1.587.094.017.176.017.27.022 8.398-13.903 11.433-28.169 2.703-43.167zm178.463-106.531c3.662 1.919 2.553 4.16 2.355 6.489-4.75-1.269-1.834-3.895-2.355-6.489zm-110.467-330.636c10.045 46.438 32.869 88.38 47.516 133.252 19.568 60.061 40.291 119.753 60.506 179.608 1.154 3.416 3.152 6.804-1.18 13.645-17.498-32.004-34.172-62.518-50.857-93.04-2.328.555-4.645 1.096-6.975 1.647l54.883 453.144c-49.961-35.786-79.947-83.166-118.359-130.089-2.631 28.317 10.029 48.95 9.887 75.845-16.725-19.657-28.098-37.97-38.582-56.925-3.137-5.668 1.543-9.084 3.928-13.145 21.209-36.294 35.828-75.32 48.57-115.22 7.596-23.764 4.465-47.341.973-71.034-3.576-24.233-7.316-48.454-11.463-72.594-1.674-9.775-5.584-19.118-12.488-26.337-7.732-8.087-16.686-15.567-29.107-11.25-12.654 4.402-19.695 13.351-21.029 27.353-6.096 64.072-13.439 127.978-25.527 191.262-8.848 46.29-19.254 92.106-40.568 135.076 5.123-28.325 10.627-56.59 15.277-84.989 6.037-36.874 11.348-73.854 17.049-110.769.686-4.446.01-8.304-2.154-12.34-43.211-80.48-71.439-166.944-100.404-253.061-4.674-13.906-17.695-24.248-14.773-41.712 2.355-14.12.479-28.965 1.5-43.771 33.084 86.689 62.668 174.761 111.91 260.81 24.076-64.625 39.773-125.739 54.953-190.38 23.342 62.235 39.773 124.479 76.943 178.468-12.615-129.282-13.691-259.61-49.27-385.786 10.063 19.815 14.255 41.086 18.841 62.332zm-194.748 369.159c10.227 4.402 16.021 12.505 16.9 22.957 1.895 22.775-5.91 43.837-16.316 63.235-5.822 10.833-20.535 10.803-31.355 12.291-26.104 3.6-52.553 3.298-78.596-2.46-3.904-.862-6.777-2.631-7.633-6.788-17.695-.796-23.381-8.545-18.953-24.708 3.689-13.428 5.557-27.021 4.387-40.726.736-2.765 1.648-7.011 2.752-13.491 2.115-.181 4.455-.396 7.344-.648-.248 19.982.246 39.468 4.156 58.616 4.607 4.284 8.82 7.958 12.682 11.127 3.455 4.717 7.074 9.221 13.23 9.858 21.973 14.428 26.861 6.319 26.861 6.319 9.084-1.763 17.59-10.103 24.373-19.151 4.07.994 6.068-4.666 8.195-7.98 3.531-5.542 5.574-11.66 7.145-18.027 1.225-4.916 2.17-9.965 3.338-15.032 9.502 2.839 9.014 15.455 21.02 17.053 6.601-17.01-4.614-34.483.47-52.445zm-55.711-7.463c16.279-1.9 22.979 7.098 23.77 20.463.857 14.914 5.234 31.502-9.688 43.222l-.01.003-23.742 32.005c-11.066.48-18.783-1.738-24.154-4.737-5.152-6.022-12.604-10.729-11.348-20.438-15.328-17.574-12.004-38.54-10.082-58.946.736-7.788 7.672-10.36 15.043-10.52 13.416-.292 26.943.485 40.211-1.052zm-34.506-14.887c.115-.849.227-1.7.336-2.543 10.994-6.085 22-12.173 32.914-18.206 7.051 3.809 8.154 8.922 5.635 15.999l-38.885 4.75zm79.113 49.923c-11.842-19.521-20.574-39.276-25.512-60.703 5.483 21.188 37.088 30.771 25.512 60.703zm1.625-207.222c1.043-.231 2.082-.464 3.125-.698 9.266 26.125 18.525 52.246 27.789 78.354-9.084 4.41-16.316 2.708-25.68 1.662-1.736-26.298-3.488-52.803-5.234-79.318zm-713.093-240.193c.807-1.002 2.098-1.617 3.196-2.392.396.928.791 1.854 1.449 3.372-1.241.513-2.454 1.03-3.668 1.546-.368-.87-1.263-2.169-.977-2.526zm8.457 85.895c-37.725 18.799-71.418 35.605-105.117 52.405-2.614 1.475-5.25 1.991-8.963-.22a9357.1 9357.1 0 0 0 6.097-3.249c50.839-54.956 99.636-111.644 146.043-170.392 9.941-12.563 18.503-25.741 25.808-40.037 18.233-35.665 40.41-68.727 68.446-97.541 4.608-4.726 8.238-10.916 15.488-12.453 28.009-31.002 62.839-52.345 103.134-60.275 24.841-4.894 51.296 2.356 75.438 11.992 9.013 3.595 15.284 2.974 23.621-1.931 76.427-44.897 159.077-64.838 247.35-55.711 68.424 7.077 132.061 30.366 186.025 73.42 27.662 22.051 40.871 56.313 54.314 88.721 33.277 80.252 57.156 163.292 69.02 249.357 7.111 51.581 10.912 103.609 16.25 155.432 2.18 21.262 4.471 42.505 5.674 64.1-27.592-55.514-44.82-115.116-68.672-173.037-14.158 65.695-32.607 129.362-53.938 197.355-49.664-92.812-80.684-189.065-114.887-283.961-2.664.45-5.307.898-7.959 1.351 2.236 98.057 4.482 196.114 6.717 294.174-12.391-19.96-17.789-42.48-23.021-64.853-5.432-23.248-9.717-46.797-13.758-70.339-4.049-23.539-7.641-47.171-10.572-70.875-2.934-23.714-5.334-47.522-7.002-71.355-1.676-23.723.076-47.717-8.52-71.797-26.174 108.451-56.594 215.586-91.803 322.653-34.244-105.392-68.481-210.786-102.729-316.178-2.252.47-4.504.947-6.75 1.419-1.988 20.299-1.076 40.649.774 61.077 2.055 22.608 3.581 45.254.341 67.903 7.579 23.879 3.992 48.552 6.151 74.197-6.783-3.392-7.107-9.139-8.897-13.678a32802.316 32802.316 0 0 1-60.247-153.738c-.412-1.068.944-2.817 1.472-4.256-13.626-33.07-27.257-66.138-40.768-98.925-10.748 1.936-10.357 10.666-14.943 15.07-.714 5.215-1.423 10.432-8.475 14.164a89652.747 89652.747 0 0 0-9.007-32.623c-2.916-8.735-5.585-17.561-8.831-26.169-2.702-7.178-7.178-9.979-13.79-3.724-19.189 46.438-38.972 92.625-55.184 140.252-27.296 80.225-51.637 161.336-74.187 243.008-2.032 7.332-1.769 15.891-9.237 22.518-15.971-64.076-31.728-127.239-47.484-190.414-1.933-.096-3.86-.195-5.777-.289-26.147 57.359-40.784 118.605-56.875 179.52 14.949-12.662 14.504-31.994 20.386-48.445 6.206-17.316 10.902-35.168 16.646-52.649 5.877-17.879 12.22-35.607 22.127-53.407 2.467 8.908 5.141 17.764 7.359 26.732 12.385 50.046 24.698 100.114 36.868 150.215 1.137 4.701 1.132 9.666 1.647 14.515 12.28 4.569 12.143-5.267 14.016-12.316 23.424-88.528 49.05-176.395 78.597-263.076 16.229-47.629 33.095-95.044 56.502-142.49 11.082 23.792 16.75 47.1 23.033 71.723 11.918-4.962 11.056-16.454 16.025-24.78 11.55 2.908 15.719 12.511 19.041 20.952 26.065 66.121 51.477 132.509 77.004 198.847.395 1.011-.066 2.367-.154 3.575.006.005.022.008.033.017 0 .017 0 .036-.011.055 4.432 2.557 5.118 5.761 1.724 9.927-2.202-3.213-2.817-6.429-1.724-9.927-.017-.005-.022-.011-.033-.019 0-.019.011-.036.011-.052-9.227-5.454-10.33-15.924-14.285-24.338-18.491-39.375-36.241-79.101-55.04-120.437-24.808 11.857-39.537 32.661-54.3 55.082-10.183-11.563-7.941-29.379-26.675-36.151-58.451 103.381-87.57 217.898-122.637 331.091-3.916-19.052-7.837-38.101-11.753-57.158-12.692 2.232-7.963 12.184-7.661 19.049 2.795 64.534 11 128.579 17.563 192.775 2.104 20.683 4.262 41.355 4.679 62.285-10.742-29.429-15.85-60.094-20.825-90.635-9.71-59.418-18.267-119.034-26.999-178.62-2.296-15.641-7.678-29.742-18.003-41.682-7.469-8.628-18.233-14.191-27.778-7.535-14.719 10.246-30.942 20.529-36.5 39.427-5.992 20.364-11.056 41.012-18.409 61.291-3.471-68.071-1.335-135.952-1.829-204.588-19.381 22.6-26.817 51.721-45.007 74.211 5.428-70.758 37.925-133.639 55.592-205.532zm347.029 22.05c-13.438 1.403-24.324 2.538-36.588 3.828 5.547-11.887 14.796-18.7 25.659-26.636 3.79 7.9 6.843 14.296 10.929 22.808zm-90.036 12.621c-1.186-7.241 2.318-11.407 7.271-15.158 3.696 4.91 7.48 9.479 5.19 15.971.049 0 .093 0 .137.005l.72.637-.934-.39c.027-.088.05-.17.077-.253-4.068-.257-8.133-.527-12.461-.812zm-167.133 409.605c-33.727-10.146-42.277-56.9-24.565-129.029 8.886 25.801 16.739 48.796 24.741 71.734 1.264 3.605 2.208 6.876-.23 10.385-10.326 14.829-11.791 30.198.054 46.91zm9.414-42.401a65955.05 65955.05 0 0 1 6.601 38.814c-18.969-10.247-20.419-18.447-6.601-38.814zm-92.798-8.685c.093 2.781-1.735 5.843-3.246 8.444-29.898 51.627-55.92 105.287-82.836 158.48-.967 1.906-1.126 5.039-6.371 4.66 2.769-53.113 9.639-105.795 16.328-158.48 6.591-51.833 15.674-103.332 22.539-155.748-23.479 34.517-41.52 71.569-67.897 104.15 12.648-38.46 25.274-76.921 38.225-116.348 5.871 5.915 1.137 12.796 9.319 19.617 15.707-31.87 31.041-62.969 46.364-94.062 2.548 71.423-.561 142.542 5.646 213.9 21.721-29.017 19.793-66.189 35.27-97.263-7.47 37.285-14.566 74.464-13.341 112.65zm68.721 142.91c-44.793-68.854-74.647-141.288-51.834-225.747 4.636-17.179 9.216-34.38 13.4-51.666 2.104-8.721 6.953-14.342 15.592-16.157 9.699-2.038 14.681 4.726 18.964 11.596 17.13 27.455 12.879 59.061 18.97 88.668-1.576.258-3.158.519-4.734.78l-27.998-69.029c-18.179 10.372-32.93 52.666-26.493 78.783 10.259-22.292 8.551-45.504 22.1-64.976 4.36 10.531 5.618 16.322 2.208 28.188-11.292 39.304-18.976 80.653 6.7 118.962 10.528 15.712 23.012 25.618 44.063 18.008 6.233 13.392 6.738 27.962 9.309 44.977-23.923 2.949-34.836-13.467-45.528-27.974-11.127-15.089-20.106-31.741-30.476-48.418-8.919 27.518 43.024 84.736 78.398 86.741.226 8.06 5.833 15.951 1.796 24.437-3.998 8.436-9.512 16.63-19.349 18.382-12.281 2.198-19.465-6.933-25.088-15.555zm87.4 206.019c-13.021-40.24-26.032-80.485-40.344-124.708-11.43 19.695-10.095 38.126-17.575 56.723-9.149-38.423-13.34-75.246-18.035-113.317 14.96 1.016 28.251-1.982 38.389-19.376 6.92 32.156 12.643 60.055 19.024 87.801 2.461 10.693 4.125 22.649 10.127 31.238 17.86 25.566 12.456 53.542 8.414 81.639zm67.562 25.873c-6.529 16.272-12.758 32.666-21.078 54.178-8.743-38.516-16.239-71.512-22.968-101.141 13 11.439 27.614 24.324 42.262 37.176 3.234 2.828 3.372 5.832 1.784 9.787zm-47.406-72.331c-13.094-17.162-26.549-38.492-27.878-58.73-.978-14.928 1.643-31.947-.038-47.99-7.102-68.067-14.57-136.105-22.051-204.148-.659-5.97-2.202-11.857-3.63-19.349 13.334.964 15.74-7.979 18.206-18.008 6.48-26.216 14.279-52.111 20.452-78.396 2.922-12.426 8.984-15.383 20.853-13.156 11.018 2.065 21.161 4.926 30.871 10.948 21.369 13.236 43.354 25.491 65.086 38.15 4.679-1.118 10.297 2.104 14.087-3.064-37.483-15.051-67.382-44.658-108.698-56.26 18.036-7.744 36.412 6.294 55.344-4.025-22.479-10.259-43.942-4.712-65.312-7.192.687-4.652.747-8.952 1.978-12.893 17.491-55.659 36.384-110.782 60.23-164.165 6.277-14.051 13.763-17.088 26.779-11.069 11.462 5.311 20.672 4.25 31.617-4.432 11.44-9.079 27.191-10.133 42.229-10.364 10.265-.156 11.494 7.733 14.411 14.098 33.495 73.143 66.47 146.56 108.593 215.336 6.168 10.062 11.5 21.276 27.186 30.442-5.504-31.365-12.285-57.905-17.975-85.159 11.313 12.458 15.883 28.338 21.555 43.378 6.271 16.633 9.596 34.465 16.734 50.647 7.645 17.33-2.867 32.562-5.207 48.363 11.215 2.441 8.178-10.608 15.955-9.153-1.049-7.485 2.373-7.653 8.041-5.234 4.223 1.802 7.936 8.2 13.449 2.117l-5.799-24.494c-20.738-27.084-29.773-59.918-43.75-90.264-14.031-30.437-25.813-61.919-38.609-92.919-1.187-2.831-1.972-7.299-4.031-8.051-22.495-8.265-15.301-28.915-16.718-44.073-2.504-26.785-.714-53.973 1.088-81.521 31.958 97.675 63.911 195.351 95.874 293.023 2.439-.093 4.867-.187 7.311-.283 29.996-95.333 55.693-191.921 82.176-289.103 10.232 98.922 20.602 197.8 50.922 293.208-27.805-63.798-40.393-131.857-57.754-199.354-16.871 70.523-23.176 142.169-34.561 214.002 12.303-.475 12.533-7.975 12.055-13.247-1.613-17.791 8.117-25.345 23.33-29.882 9.848-2.944 18.805-8.831 29.729-9.424 4.729 8.244 7.32 16.877 9.133 27.098-10.803 5.635-21.061 13.466-32.572 16.416-17.68 4.515-24.434 23.157-41.531 28.418-3.91 1.197-3.865 7.049-2.932 12.717-.748 3.268-1.6 6.983-2.5 10.904-.543 1.406-.834 2.903-1.004 4.432a6220.114 6220.114 0 0 0-3.9 17.281c-.357.379-.73.744-1.164 1.101-5.602-4.237-7.842-14.21-17.975-11.377 5.123 13.087 7.545 26.546 5.447 40.603 3.598.069 5.893 2.013 6.189 5.448 1.885 21.938 16.053 29.344 35.709 32.186 33.105 4.789 65.658 7.661 99.236.505 23.664-5.03 32.633-24.788 40.48-40.179 6.563-12.865 12.379-25.425 24.945-37.621-22.266-12.146-26.307-37.974-46.875-52.479-13.225-9.317-5.805-30.099-4.768-45.315.791-11.407 13.879-6.017 21.611-7.568 8.574-1.713 11.809 3.971 14.461 10.792 14.652 37.779 29.262 75.617 49.479 110.903 3.723 6.483 3.18 13.181 2.207 19.711-11.166 75.18-22.002 150.429-41.586 224.043-1.873 7.02-3.877 13.83-1.504 20.728 9.957 1.9 9.199-9.896 18.057-10.72-6.426 31.655-24.406 56.188-43.381 80.073-43.326 54.529-103.854 87.443-159.828 125.938-16.031 11.027-31.947 23.027-51.383 28.189-26.934 20.838-55.75 25.939-87.83 12.286-55.875-23.759-104.546-59.122-154.144-93.228-36.625-25.183-69.473-54.489-96.207-89.595zm262.408-572.583c9.572 41.619 18.777 81.526 27.877 121.461.23 1.035-.594 2.315-.918 3.477-28.156-24.98-43.304-92.104-26.959-124.938zm182.258 126.322c-9.314 2.288-18.059 6.852-29.701 11.432 6.025-43.516 11.736-84.774 17.453-126.042.973.137 1.922.267 2.889.404 7.326 30.274 13.742 60.818 22.387 90.717 4.113 14.227.631 20.137-13.028 23.489zm581.62 922.859c-263.633.104-527.266.099-790.898.033-6.733-.006-13.456-.726-20.194-1.104-5.471.533-10.946 1.538-16.427 1.543-221.921.072-443.837.061-665.775.033-2.987 0-5.98-.253-10.336-.45 3.103-8.419 10.193-11.132 15.982-14.719 27.729-17.185 58.545-27.081 90.568-28.531 62.9-2.839 121.401-23.494 181.451-38.812 87.927-22.43 161.097-70.973 232.608-123.554 7.931-5.839 10.501-12.796 11.435-21.688 5.415-52.107 3.872-104.364 3.504-156.6-.039-5.514-.006-11.021-.006-16.684 6.815-2.153 9.886 3.729 13.923 6.678 51.07 37.412 102.64 73.961 159.773 101.971 32.749 16.064 65.206 21.188 98.571 2.51 59.082-29.223 112.334-67.492 165.1-106.512 2.803-2.076 4.961-5.713 10.238-4.268 3.916 11.165-.561 22.424-1.027 33.715-1.846 44.244 2.049 88.345 3.492 132.5.436 13.4 5.58 24.133 17.646 32.102 37.352 24.681 72.988 51.91 111.279 75.268 14.873 9.051 30.617 15.384 46.936 20.908 67.969 22.984 135.586 47.215 206.734 58.874 26.543 4.351 53.898 2.346 80.063 10.04 25.115 7.381 49.494 16.168 70.684 33.605-5.74 5.053-10.793 3.136-15.324 3.142z"/><text transform="translate(354.141 2318.273)"><tspan x="0" y="0" fill="#F2F2F2" font-family="'Poppins-Medium'" font-size="206.055">my</tspan><tspan x="334.009" y="0" fill="#F2F2F2" font-family="'Poppins-Medium'" font-size="264.125">MangAnime</tspan><tspan x="1959.144" y="0" fill="#F2F2F2" font-family="'Poppins-Medium'" font-size="206.055">List</tspan></text><path fill="#09AFFB" fill-rule="evenodd" d="M713.955 2401.655h1592.639V2417H713.955z" clip-rule="evenodd"/></svg>